<svg width="96" height="96" viewBox="0 0 96 96" fill="none" xmlns="http://www.w3.org/2000/svg">
<path d="M87 39.916V17H69C67.343 17 66 18.343 66 20V34H51C49.343 34 48 35.343 48 37V51H33C31.343 51 30 52.343 30 54V68H15C13.343 68 12 69.343 12 71V87H39.916L87 39.916Z" fill="#400099"/>
<path d="M42.744 86.9999H87V42.7439L42.744 86.9999Z" fill="#400099"/>
<path d="M28.567 31.4851C29.286 31.4851 29.841 31.2081 30.233 30.6521C30.625 30.0971 30.821 29.3101 30.821 28.2931C30.821 27.2761 30.625 26.4901 30.233 25.9351C29.841 25.3801 29.286 25.1021 28.567 25.1021C27.848 25.1021 27.293 25.3791 26.901 25.9351C26.509 26.4911 26.313 27.2771 26.313 28.2931C26.313 29.3111 26.509 30.0981 26.901 30.6521C27.293 31.2081 27.848 31.4851 28.567 31.4851Z" fill="#8896A2"/>
<path d="M24.154 11C14.765 11 7.15399 18.611 7.15399 28C7.15399 37.389 14.765 45 24.154 45C33.543 45 41.154 37.389 41.154 28C41.154 18.611 33.543 11 24.154 11ZM18.044 15.418L19.046 17.153C18.439 17.439 17.857 17.769 17.311 18.149L16.305 16.407C16.856 16.033 17.442 15.711 18.044 15.418ZM10.154 28C10.154 27.662 10.181 27.332 10.204 27H12.204C12.177 27.331 12.154 27.662 12.154 28C12.154 28.338 12.177 28.669 12.204 29H10.204C10.181 28.668 10.154 28.338 10.154 28ZM12.56 35.848C12.187 35.298 11.865 34.712 11.572 34.109L13.307 33.107C13.593 33.714 13.923 34.296 14.303 34.842L12.56 35.848ZM13.307 22.893L11.572 21.891C11.865 21.288 12.187 20.702 12.561 20.152L14.303 21.158C13.923 21.704 13.594 22.286 13.307 22.893ZM18.044 40.582C17.441 40.289 16.855 39.967 16.305 39.593L17.311 37.851C17.857 38.231 18.439 38.56 19.046 38.847L18.044 40.582ZM22.75 31.556C22.428 32.107 21.984 32.54 21.42 32.858C20.855 33.175 20.223 33.334 19.523 33.334C18.776 33.334 18.118 33.188 17.549 32.894C16.98 32.6 16.534 32.199 16.212 31.69C15.89 31.181 15.706 30.61 15.659 29.975L15.813 29.863L17.521 29.611C17.567 30.209 17.768 30.689 18.123 31.053C18.477 31.416 18.935 31.599 19.495 31.599C20.027 31.599 20.449 31.433 20.762 31.102C21.075 30.771 21.231 30.311 21.231 29.723C21.231 29.162 21.03 28.722 20.629 28.4C20.228 28.078 19.728 27.917 19.131 27.917H18.627V26.476L20.209 25.076H16.023V23.396H22.715V25.02L20.811 26.616C21.548 26.878 22.136 27.249 22.575 27.729C23.014 28.209 23.233 28.87 23.233 29.709C23.233 30.389 23.072 31.005 22.75 31.556ZM24.154 40.959C24.154 40.446 24.542 40.005 25.053 39.967C31.26 39.507 36.154 34.325 36.154 28C36.154 21.675 31.261 16.493 25.053 16.033C24.541 15.995 24.154 15.554 24.154 15.041C24.154 14.449 24.665 13.997 25.256 14.043C32.473 14.604 38.154 20.639 38.154 28C38.154 35.361 32.473 41.396 25.256 41.957C24.665 42.003 24.154 41.551 24.154 40.959ZM24.311 28.293C24.311 27.285 24.488 26.401 24.843 25.641C25.198 24.88 25.695 24.292 26.334 23.876C26.973 23.461 27.718 23.253 28.567 23.253C29.416 23.253 30.161 23.461 30.8 23.876C31.439 24.292 31.936 24.88 32.291 25.641C32.645 26.402 32.823 27.286 32.823 28.293C32.823 29.302 32.646 30.186 32.291 30.946C31.936 31.707 31.439 32.295 30.8 32.71C30.161 33.126 29.416 33.333 28.567 33.333C27.718 33.333 26.973 33.126 26.334 32.71C25.694 32.295 25.198 31.707 24.843 30.946C24.488 30.185 24.311 29.302 24.311 28.293Z" fill="#8896A2"/>
</svg>
