<svg width="24" height="24" viewBox="0 0 24 24" fill="none" xmlns="http://www.w3.org/2000/svg">
<path fill-rule="evenodd" clip-rule="evenodd" d="M20.966 2.99994H21C21.552 2.99994 22 3.44794 22 3.99994V5.99994H2V3.99994C2 3.44794 2.448 2.99994 3 2.99994H3.034C3.568 2.99994 4 2.56794 4 2.03394V1.99994C4 1.42594 4.484 0.963944 5.066 1.00194C5.598 1.03594 6 1.50094 6 2.03394C6 2.56794 6.432 2.99994 6.966 2.99994H17.034C17.568 2.99994 18 2.56794 18 2.03394V1.99994C18 1.42594 18.484 0.963944 19.067 1.00194C19.598 1.03594 20 1.50094 20 2.03394C20 2.56794 20.432 2.99994 20.966 2.99994ZM2 18.9999C2 20.6569 3.343 21.9999 5 21.9999H19C20.657 21.9999 22 20.6569 22 18.9999V6.99994H2V18.9999ZM16 12.9999C17.657 12.9999 19 14.3429 19 15.9999C19 17.6569 17.657 18.9999 16 18.9999C14.343 18.9999 13 17.6569 13 15.9999C13 14.3429 14.343 12.9999 16 12.9999ZM16 17.9999C17.1046 17.9999 18 17.1045 18 15.9999C18 14.8954 17.1046 13.9999 16 13.9999C14.8954 13.9999 14 14.8954 14 15.9999C14 17.1045 14.8954 17.9999 16 17.9999Z" fill="#440099"/>
</svg>
