<svg width="96" height="96" viewBox="0 0 96 96" fill="none" xmlns="http://www.w3.org/2000/svg">
<path d="M52.717 48.731L50.158 43.645C49.739 42.813 48.932 42.316 48 42.316C47.067 42.316 46.261 42.813 45.841 43.646L43.283 48.731C41.983 51.316 39.413 52.968 36.578 53.044L36.366 53.047H30.462C32.915 60.389 39.832 65.687 47.999 65.687C56.167 65.687 63.085 60.388 65.537 53.045L59.415 53.044C56.586 52.969 54.018 51.316 52.717 48.731ZM48 28.687C37.783 28.687 29.5 36.97 29.5 47.187C29.5 48.511 29.645 49.801 29.909 51.046L36.52 51.045C38.623 50.988 40.528 49.758 41.497 47.832L44.055 42.746C44.81 41.246 46.322 40.315 48 40.315C49.678 40.315 51.189 41.247 51.944 42.746L54.503 47.832C55.472 49.757 57.377 50.988 59.475 51.044L59.633 51.047H66.09C66.355 49.801 66.5 48.511 66.5 47.187C66.5 36.97 58.218 28.687 48 28.687Z" fill="#8896A2"/>
<path d="M87.559 32.4071C86.125 22.7631 78.499 15.1411 68.852 13.7261C60.418 12.4891 52.731 15.9811 48.001 21.9291C43.269 15.9811 35.582 12.4881 27.149 13.7261C17.503 15.1421 9.877 22.7621 8.441 32.4061C7.543 38.4371 9.078 44.0821 12.187 48.5491L12.17 48.5541L42.68 85.7391C45.433 89.0941 50.567 89.0941 53.32 85.7391L83.829 48.5541L83.813 48.5481C86.921 44.0811 88.456 38.4381 87.559 32.4071ZM48 67.6871C36.696 67.6871 27.5 58.4911 27.5 47.1871C27.5 35.8831 36.696 26.6871 48 26.6871C59.304 26.6871 68.5 35.8831 68.5 47.1871C68.5 58.4911 59.304 67.6871 48 67.6871Z" fill="#400099"/>
</svg>
