<svg width="96" height="96" viewBox="0 0 96 96" fill="none" xmlns="http://www.w3.org/2000/svg">
<path d="M48.799 83.086C48.912 85.265 50.711 86.974 52.893 86.974H52.9C55.164 86.974 57 85.138 57 82.874V69.303C54.104 69.533 51.115 69.67 48.107 69.715L48.799 83.086ZM35 82.874C35 85.138 36.836 86.974 39.1 86.974H39.107C41.289 86.974 43.089 85.265 43.202 83.086L43.894 69.715C40.886 69.67 37.898 69.533 35.001 69.303V82.874H35ZM77.537 32.192C74.131 29.586 70.584 27.201 66.868 25.012C64.379 23.553 61.812 22.189 59.111 20.978C56.404 19.775 53.578 18.702 50.431 17.999C50.431 17.999 48.051 17.478 46 17.478C43.949 17.478 41.569 17.999 41.569 17.999C38.423 18.703 35.596 19.775 32.889 20.978C30.188 22.189 27.621 23.553 25.132 25.012C21.416 27.201 17.87 29.587 14.463 32.193C12.73 33.518 12.202 36.02 13.434 37.82C14.744 39.733 17.331 40.14 19.174 38.813C22.424 36.472 25.839 34.317 29.33 32.403C30.733 31.636 32.152 30.912 33.58 30.243C34.24 29.933 34.999 30.429 34.999 31.158V63.298C37.944 63.542 41.02 63.682 44.202 63.721L44.684 54.404C44.72 53.704 45.298 53.155 45.999 53.155C46.7 53.155 47.278 53.704 47.314 54.404L47.796 63.721C50.978 63.682 54.054 63.542 56.999 63.298V31.158C56.999 30.429 57.758 29.934 58.418 30.243C59.846 30.913 61.265 31.637 62.668 32.403C66.159 34.317 69.573 36.472 72.824 38.813C74.667 40.14 77.254 39.732 78.564 37.82C79.798 36.019 79.269 33.518 77.537 32.192ZM46 14.974C49.59 14.974 52.5 12.064 52.5 8.474V6.5C52.5 2.91 49.59 0 46 0C42.41 0 39.5 2.91 39.5 6.5V8.474C39.5 12.064 42.41 14.974 46 14.974Z" fill="#400099"/>
<path d="M63 46.3159V49.3509C75.34 51.0589 82 54.3919 82 56.7459C82 60.2959 68.304 65.2459 46 65.2459C23.696 65.2459 10 60.2959 10 56.7459C10 54.5499 15.82 51.4909 26.651 49.7069L23.175 53.1829C22.589 53.7689 22.589 54.7179 23.175 55.3039C23.468 55.5969 23.852 55.7429 24.236 55.7429C24.62 55.7429 25.004 55.5969 25.297 55.3039L31.297 49.3039C31.883 48.7179 31.883 47.7689 31.297 47.1829L25.297 41.1829C24.711 40.5969 23.762 40.5969 23.176 41.1829C22.59 41.7689 22.59 42.7179 23.176 43.3039L26.55 46.6779C18.97 47.8949 7 50.7639 7 56.7459C7 64.2959 26.62 68.2459 46 68.2459C65.38 68.2459 85 64.2959 85 56.7459C85 50.0849 70.186 47.2829 63 46.3159Z" fill="#8896A2"/>
</svg>
