<svg width="24" height="24" viewBox="0 0 24 24" fill="none" xmlns="http://www.w3.org/2000/svg">
  <path d="M20.7167 3.28401C20.339 2.90533 19.725 2.90533 19.3473 3.28401L12.0004 10.6309L4.65344 3.28401C4.27574 2.90533 3.66269 2.90533 3.28401 3.28401C2.90533 3.66172 2.90533 4.27574 3.28401 4.65344L10.6309 12.0004L3.28401 19.3473C2.90533 19.725 2.90533 20.338 3.28401 20.7167C3.66269 21.0944 4.27574 21.0944 4.65344 20.7167L12.0004 13.3698L19.3473 20.7167C19.726 21.0944 20.339 21.0944 20.7167 20.7167C21.0944 20.338 21.0944 19.725 20.7167 19.3473L13.3698 12.0004L20.7167 4.65344C21.0944 4.27574 21.0944 3.66172 20.7167 3.28401Z" fill="#440099"/>
</svg>
