<svg width="24" height="24" viewBox="0 0 24 24" fill="none" xmlns="http://www.w3.org/2000/svg">
<path d="M12 1C5.925 1 1 5.925 1 12C1 18.075 5.925 23 12 23C18.075 23 23 18.075 23 12C23 5.925 18.075 1 12 1ZM12 18.5C11.31 18.5 10.75 17.94 10.75 17.25C10.75 16.56 11.31 16 12 16C12.69 16 13.25 16.56 13.25 17.25C13.25 17.94 12.69 18.5 12 18.5ZM15.159 11.206L13.928 12.189C13.277 12.707 13 13.163 13 13.711V14C13 14.552 12.552 15 12 15C11.448 15 11 14.552 11 14V13.711C11 11.965 12.265 10.957 12.68 10.625L13.863 9.684C13.975 9.579 14.171 9.324 14.171 8.959C14.171 8.631 14.075 8.369 13.877 8.157C13.434 7.68 12.792 7.418 12.064 7.418C11.322 7.418 10.627 7.747 10.156 8.32C10.105 8.385 10.06 8.454 10.023 8.528C9.851 8.87 9.515 9.098 9.133 9.098H9.093C8.374 9.098 7.898 8.349 8.205 7.699C8.311 7.473 8.444 7.26 8.601 7.063C9.462 6.013 10.721 5.418 12.064 5.418C13.355 5.418 14.519 5.907 15.341 6.795C15.883 7.376 16.171 8.125 16.171 8.959C16.17 9.812 15.811 10.61 15.159 11.206Z" fill="#400099"/>
</svg>
