<svg width="24" height="24" viewBox="0 0 24 24" fill="none" xmlns="http://www.w3.org/2000/svg">
<path d="M14 11.5C16.623 11.5 18.75 9.373 18.75 6.75V5.75C18.75 3.127 16.623 1 14 1C11.377 1 9.25 3.127 9.25 5.75V6.75C9.25 9.373 11.377 11.5 14 11.5ZM14 12.909C12.41 12.919 10.974 13.14 9.714 13.56C11.111 14.754 12 16.524 12 18.5C12 19.789 11.618 20.988 10.969 22H24C24 16.038 20.111 12.947 14 12.909ZM5.5 13C2.462 13 0 15.462 0 18.5C0 21.538 2.462 24 5.5 24C8.538 24 11 21.538 11 18.5C11 15.462 8.538 13 5.5 13ZM5.853 21.354L5.146 20.647L6.793 19H3V18H6.793L5.146 16.354L5.853 15.647L8.707 18.5L5.853 21.354Z" fill="#400099"/>
</svg>
