<svg width="24" height="24" viewBox="0 0 24 24" fill="none" xmlns="http://www.w3.org/2000/svg">
<path d="M18.27 2.46012C16.58 1.46012 14.91 1.12012 13.02 1.12012C7.33001 1.12012 4.41001 4.97012 4.41001 9.36012C4.41001 10.0101 4.24001 10.6501 3.92001 11.2101L1.95001 14.6201C1.57001 15.2901 2.05001 16.1201 2.82001 16.1201H3.40001C3.95001 16.1201 4.40001 16.5701 4.40001 17.1201V20.1201C4.40001 21.2201 5.30001 22.1201 6.40001 22.1201H13.05C14.58 22.1201 16.06 21.5301 17.14 20.4501C19.2 18.4001 20.46 16.1301 21.09 14.8101C21.78 13.5101 22.17 12.0301 22.17 10.4501C22.19 6.92012 20.91 4.02012 18.27 2.46012Z" fill="#440099"/>
<path d="M14.78 5.63989C14.81 5.63989 14.85 5.64989 14.88 5.65989C14.9 5.66989 14.92 5.67989 14.93 5.68989C15.03 5.75989 15.08 5.88989 15.03 6.00989L13.79 9.19989L15.3 9.78989C15.39 9.81989 15.45 9.89989 15.47 9.98989C15.49 10.0799 15.46 10.1699 15.39 10.2399L11.31 14.1499C11.26 14.1999 11.19 14.2299 11.12 14.2299C11.09 14.2299 11.05 14.2199 11.02 14.2099C11 14.1999 10.98 14.1899 10.97 14.1799C10.86 14.1099 10.82 13.9799 10.87 13.8599L11.93 11.1199L10.16 10.4299C10.07 10.3999 10.01 10.3199 9.98997 10.2299C9.96997 10.1399 9.99997 10.0499 10.07 9.97989L14.58 5.71989C14.64 5.65989 14.71 5.63989 14.78 5.63989ZM14.78 4.63989C14.45 4.63989 14.14 4.75989 13.91 4.98989L9.39997 9.24989C9.07997 9.54989 8.93997 9.98989 9.02997 10.4199C9.10997 10.8499 9.40997 11.1999 9.81997 11.3599L10.65 11.6799L9.94997 13.4899C9.73997 14.0399 9.93997 14.6799 10.43 15.0099C10.51 15.0599 10.59 15.0999 10.68 15.1399C10.83 15.1999 10.98 15.2299 11.14 15.2299C11.47 15.2299 11.78 15.0999 12.02 14.8799L16.1 10.9699C16.41 10.6699 16.55 10.2299 16.47 9.80989C16.38 9.37989 16.09 9.02989 15.68 8.86989L15.1 8.64989L15.98 6.38989C16.2 5.82989 16 5.20989 15.51 4.87989C15.43 4.82989 15.35 4.77989 15.26 4.74989C15.09 4.66989 14.94 4.63989 14.78 4.63989Z" fill="white"/>
</svg>
