<svg width="96" height="96" viewBox="0 0 96 96" fill="none" xmlns="http://www.w3.org/2000/svg">
<path d="M70.18 15.853C64.068 12.231 58.003 11 51.166 11C30.529 11 19.962 25.002 20.002 40.962C20.008 43.254 19.386 45.503 18.24 47.487L10.151 61.5C8.99599 63.5 10.44 66 12.749 66H16C18.209 66 20 67.791 20 70V80C20 83.866 23.134 87 27 87H51.476C56.998 87 62.288 84.798 66.198 80.898C73.611 73.503 78.167 65.329 80.443 60.539C82.928 55.816 84.366 50.46 84.366 44.752C84.365 32.856 79.733 21.515 70.18 15.853ZM36 68C29.925 68 25 63.075 25 57C25 50.925 29.925 46 36 46C42.075 46 47 50.925 47 57C47 63.075 42.075 68 36 68ZM59 51C50.716 51 44 44.284 44 36C44 27.716 50.716 21 59 21C67.284 21 74 27.716 74 36C74 44.284 67.284 51 59 51Z" fill="#400099"/>
<path d="M59 23C51.832 23 46 28.832 46 36C46 43.168 51.832 49 59 49C66.168 49 72 43.168 72 36C72 28.832 66.168 23 59 23ZM66 37H60V43H58V37H52V35H58V29H60V35H66V37Z" fill="#8896A2"/>
<path d="M36 48C31.037 48 27 52.037 27 57C27 61.963 31.037 66 36 66C40.963 66 45 61.963 45 57C45 52.037 40.963 48 36 48ZM41 58H31V56H41V58Z" fill="#8896A2"/>
</svg>
