<svg width="96" height="96" viewBox="0 0 96 96" fill="none" xmlns="http://www.w3.org/2000/svg">
<path d="M59.314 26.3139C58.923 25.9229 58.518 25.5569 58.099 25.2159C56.004 23.5079 53.578 22.4089 51.056 21.9209C50.048 21.7259 49.024 21.6279 48 21.6279C46.976 21.6279 45.953 21.7259 44.944 21.9209C42.423 22.4089 39.996 23.5079 37.901 25.2159C37.482 25.5579 37.076 25.9239 36.686 26.3139L16 46.9999H80L59.314 26.3139ZM43.946 42.0329L38.73 36.8169C38.34 36.4269 38.34 35.7929 38.73 35.4029C39.12 35.0129 39.754 35.0129 40.144 35.4029L43.946 39.2049L53.063 30.0879C53.453 29.6979 54.087 29.6979 54.477 30.0879C54.867 30.4779 54.867 31.1119 54.477 31.5019L43.946 42.0329Z" fill="#8896A2"/>
<path d="M70.632 34.8029L83.023 31.4829C83.823 31.2679 84.298 30.4459 84.084 29.6449C83.87 28.8449 83.046 28.3749 82.247 28.5839L68.183 32.3519L70.632 34.8029ZM74.024 17.8699C74.439 17.1519 74.192 16.2349 73.475 15.8209C72.758 15.4069 71.841 15.6529 71.426 16.3699L64.388 28.5599L66.584 30.7559L74.024 17.8699ZM12.123 48.9999C10.395 48.9999 8.98899 50.4589 9.12799 52.1819C10.747 72.2329 27.532 87.9999 48 87.9999C68.468 87.9999 85.253 72.2329 86.872 52.1819C87.011 50.4589 85.606 48.9999 83.877 48.9999H12.123Z" fill="#400099"/>
</svg>
